<svg width="41" height="41" viewBox="0 0 41 41" fill="none" xmlns="http://www.w3.org/2000/svg">
<path d="M19.168 5.69626C15.6991 5.69626 12.6337 6.96678 10.3796 9.31354C8.13173 11.6537 6.75105 14.9988 6.50668 19.0581C6.26122 23.1355 7.36164 26.5759 9.63573 28.9377C11.9151 31.3051 15.2502 32.4604 19.2078 32.2035C22.9965 31.9575 25.7302 31.2293 27.6913 29.2993C29.6218 27.3995 30.6313 24.4962 31.4415 20.3881C32.3116 15.9766 30.9971 12.2751 28.5566 9.69101C26.1384 7.13055 22.6451 5.69626 19.168 5.69626Z" fill="#FFCE6F" stroke="black" stroke-width="2"/>
<path d="M27.234 8.74144C30.057 11.6047 29.2437 19.0372 27.3233 23.3715C25.9038 26.5754 21.5878 30.8297 17.555 32.0568" stroke="black" stroke-width="2" stroke-linecap="round"/>
<path d="M28.0409 23.058L30.3077 23.7952M29.3726 18.4209L30.8015 18.6944M25.5597 27.0836L27.2338 28.3755M22.7976 29.1935L24.4109 30.8297" stroke="black" stroke-width="2" stroke-linecap="round"/>
<path d="M6.0174 10.2853C7.37406 11.9084 8.61614 13.4879 10.1956 14.9059C12.9168 17.3488 15.8044 19.6302 18.7323 21.8204C21.4962 23.8879 24.241 25.97 27.0641 27.9566C28.0139 28.625 29.4063 30.068 30.4968 30.3407M31.0866 4.38623C30.5548 5.26577 29.9335 5.89655 29.2152 6.62586L29.1859 6.65557C26.5898 9.29163 24.0111 11.9376 21.4521 14.6106C16.4895 19.7942 11.4666 24.9571 7.0332 30.6106C6.66636 31.0784 5.60399 32.4941 5.86985 31.9624" stroke="#FF0031" stroke-width="3" stroke-linecap="round" stroke-linejoin="round"/>
</svg>
