<svg width="41" height="41" viewBox="0 0 41 41" fill="none" xmlns="http://www.w3.org/2000/svg">
<path d="M19.1682 5.69626C15.6992 5.69626 12.6339 6.96678 10.3797 9.31354C8.13185 11.6537 6.75117 14.9988 6.5068 19.0581C6.26134 23.1355 7.36176 26.5759 9.63585 28.9377C11.9153 31.3051 15.2503 32.4604 19.2079 32.2035C22.9966 31.9575 25.7303 31.2293 27.6915 29.2993C29.6219 27.3995 30.6315 24.4962 31.4417 20.3881C32.3117 15.9766 30.9973 12.2751 28.5567 9.69101C26.1385 7.13055 22.6452 5.69626 19.1682 5.69626Z" fill="#FFCE6F" stroke="black" stroke-width="2"/>
<path d="M27.234 8.74144C30.057 11.6047 29.2437 19.0372 27.3233 23.3715C25.9038 26.5754 21.5878 30.8297 17.555 32.0568" stroke="black" stroke-width="2" stroke-linecap="round"/>
<path d="M28.041 23.058L30.3078 23.7952M29.3727 18.4209L30.8016 18.6944M25.5598 27.0836L27.2339 28.3755M22.7977 29.1935L24.411 30.8297" stroke="black" stroke-width="2" stroke-linecap="round"/>
</svg>
