<svg width="41" height="40" viewBox="0 0 41 40" fill="none" xmlns="http://www.w3.org/2000/svg">
<g clip-path="url(#clip0)">
<path d="M15.5768 26.9155C16.3119 25.3316 17.138 23.7156 17.6466 22.0561C17.8904 22.0176 18.293 21.9684 18.4116 21.9461C18.8416 21.8651 19.3588 21.5895 19.832 21.6935C20.163 21.7662 20.685 21.9301 21.0071 22.0599C21.8819 22.4122 22.5353 23.7397 22.8938 24.3736C23.5326 25.5029 24.2393 26.6178 24.7767 27.7733C25.2979 28.8941 25.7309 30.0333 26.1628 31.1698L26.1921 31.2469C26.9091 33.1333 27.8001 34.0689 29.1258 35.8063C29.2395 35.9552 29.839 36.7079 29.2644 36.4414C27.9795 35.8455 26.705 34.9688 25.5888 34.1783C25.1109 33.8399 24.6576 33.4553 24.1625 33.137C23.8329 32.925 23.7991 32.9146 23.7257 33.2105C23.5874 33.7682 23.5415 35.1023 23.4113 35.6623C23.325 36.0332 23.3311 36.7272 23.0676 37.0277C23.0436 37.0552 22.8726 36.7458 22.8574 36.7226C22.6697 36.4355 22.489 36.1467 22.3117 35.8561C21.6838 34.8266 21.4488 33.6914 20.9019 31.9175C20.7297 31.3589 20.4829 30.4921 20.2059 29.5387C19.7103 31.9011 18.7861 34.9142 18.879 37.1949C18.9045 37.8215 18.7803 38.4109 18.6145 39.0029C18.5573 39.2072 18.4878 38.9948 18.3988 38.9257C18.0077 38.6225 18.0092 37.8972 17.8804 37.5165C17.5698 36.598 17.1332 35.7367 16.6303 34.8587C16.2301 34.16 15.8875 33.4564 15.7211 32.7201C15.6658 32.476 15.5809 32.6016 15.4621 32.735C15.268 32.9531 14.9041 33.0949 14.6557 33.2703C14.3195 33.5075 14.0173 33.766 13.7296 34.0407C13.0426 34.6965 12.2605 35.3059 11.6138 35.9866C11.3164 36.2997 11.7082 35.5819 11.7526 35.4677C12.0607 34.6767 12.255 33.8594 12.5996 33.0807C13.6591 30.6866 14.4735 29.2928 15.5768 26.9155Z" fill="#793C86"/>
<path d="M9.70197 8.9773C10.4823 9.17415 11.3783 8.75233 11.7251 8.07742C12.4921 6.84741 11.8404 6.92023 11.8404 5.52748C11.8404 4.32507 12.8259 3.45979 13.8977 3.45979C14.8509 3.45979 15.4597 3.95897 16.331 4.41219C17.4586 4.99863 18.7634 5.42991 19.7417 4.41219C20.6468 3.47074 21.287 2.73926 22.6086 2.73926C23.6171 2.73926 24.0791 3.50191 24.5665 4.30713C25.1488 5.26926 25.4659 5.97155 26.8403 5.97155C27.7276 5.97155 28.1378 6.01115 28.9866 5.83456C29.3849 5.75168 30.6804 5.7309 31.0852 6.05836C31.6465 6.51249 32.3561 7.44202 32.3979 8.26722C32.4699 9.69073 32.1406 10.5873 31.4966 11.8313C31.0172 12.7576 31.9928 13.4737 32.7863 13.5042C34.216 13.5593 34.2159 14.6166 34.2159 15.7804V15.7995C34.2159 17.0169 33.0926 17.418 32.3125 18.2295C31.6048 18.9657 34.4594 20.6376 32.7597 22.0302C31.0601 23.4228 30.9707 21.7691 30.3445 23.5679C29.7183 25.3667 29.9528 26.4513 28.3423 26.4513C27.2003 26.3502 27.4618 25.7316 26.7118 25.818C25.9619 25.9044 25.9272 26.453 25.6028 26.8759C25.2784 27.2988 25.1532 27.5679 24.6286 28.0192C23.7065 28.8124 21.9636 28.9807 21.0703 28.0515C20.5055 27.464 19.9524 26.6179 19.0814 26.5968C17.9661 26.5698 17.5866 26.983 16.735 27.6474C15.6129 28.5229 13.5684 29.2145 12.4682 27.7309C11.7855 26.8104 11.9803 25.8822 11.9803 24.7945C11.9803 24.0029 11.5142 22.5855 10.6517 22.3862C9.83983 22.1985 8.87412 22.6439 8.11893 22.1356C6.09262 20.7717 7.81717 18.3262 8.55401 16.64C8.90111 15.8456 8.09807 14.8285 7.48962 14.4417C6.55599 13.8482 6.10669 13.4811 6.10669 12.3405C6.10669 11.5937 6.46432 10.416 7.02346 9.94016C7.37976 9.63691 7.57882 9.39559 8.03347 9.17238C8.48811 8.94918 8.92163 8.78045 9.70197 8.9773Z" fill="#A059AE"/>
<circle cx="20.3779" cy="15.7907" r="10.0924" fill="#793C86"/>
<path d="M23.7853 18.063H19.6903C20.5903 17.103 21.5353 16.038 22.3003 14.958C22.8853 14.133 23.3503 13.143 23.3503 12.183C23.3503 10.488 21.8203 9.46805 20.2153 9.46805C18.6403 9.46805 17.1553 10.533 17.0203 12.183L18.8353 12.498C18.8503 11.613 19.4053 11.043 20.1553 11.043C20.8753 11.043 21.4903 11.478 21.4903 12.213C21.4903 12.843 21.0553 13.563 20.6803 14.103C19.7503 15.408 18.4003 16.968 17.2453 18.168V19.623H23.7853V18.063Z" fill="white"/>
</g>
<defs>
<clipPath id="clip0">
<path d="M0.455933 0H40.4559V40H0.455933V0Z" fill="white"/>
</clipPath>
</defs>
</svg>
