<svg width="41" height="41" viewBox="0 0 41 41" fill="none" xmlns="http://www.w3.org/2000/svg">
<path fill-rule="evenodd" clip-rule="evenodd" d="M9.97808 11.4741C10.4453 11.5093 9.82224 11.6263 9.7525 11.531C9.829 11.5091 9.90431 11.49 9.97808 11.4741C9.48472 11.2882 9.87573 11.3878 9.97808 11.4741C10.0211 11.5104 9.71987 11.4865 9.7525 11.531C9.65929 11.5578 9.85536 11.498 9.95328 11.4723C10.0023 11.4594 10.0267 11.455 9.97808 11.4741Z" fill="#64C180"/>
<path d="M3.61894 24.6185C5.57466 26.3871 8.72649 26.1733 11.0021 25.384C12.8012 24.7601 14.1934 23.6754 15.5444 22.2286C15.9 21.8478 16.6206 22.125 16.7667 22.6021C17.3287 24.4375 16.8717 26.6757 15.8417 28.4461C15.5641 28.9232 15.1486 29.3295 14.7614 29.7082C14.4957 29.968 14.2433 30.2148 14.0578 30.4625L14.7614 29.7082C14.6559 29.849 14.1385 30.2495 14.0226 30.4062C13.235 31.4709 12.2275 32.8328 11.3077 33.5526C10.5641 34.1345 9.13746 34.1594 8.26028 34.1594C8.20181 34.1594 8.14688 34.1589 8.0951 34.1584C7.56916 34.1533 7.36769 34.1514 7.07104 34.7382C6.93243 35.0124 7.56812 35.6005 7.96297 35.7091C12.0663 36.8374 16.9234 36.9343 20.673 34.5795C21.4951 34.0632 22.2416 33.4566 22.4682 32.4319C22.5873 31.8935 23.0092 28.7453 23.2263 28.2283C23.4408 27.7172 23.0847 28.3679 23.2091 27.8257C23.4173 26.9178 23.5967 26.655 23.5967 25.7158C23.5967 25.0063 23.4966 24.4435 23.4218 23.759C23.3479 23.0824 23.2745 22.4097 23.2745 21.7245C23.2745 21.154 23.021 20.0249 22.8386 19.4509C22.7734 19.2453 22.9112 19.6384 22.8386 19.4509C22.7122 19.1242 22.5232 18.7364 22.4324 18.4537C22.193 17.7089 21.9913 17.0813 21.375 16.3846C20.3819 15.262 19.3792 14.1976 18.2532 13.2292C17.7078 12.7601 17.0671 12.4132 16.4295 12.068C15.9841 11.8269 15.5403 11.5866 15.1315 11.3061C13.945 10.4918 12.1737 10.9341 10.7602 11.2871C10.4834 11.3563 10.2203 11.422 9.97808 11.4741C9.90431 11.49 9.829 11.5091 9.7525 11.531C9.82224 11.6263 10.4453 11.5093 9.97808 11.4741C9.23354 11.7678 7.78309 12.4675 7.21144 12.9118C6.35607 13.5765 6.18877 14.2347 5.79837 15.2634C5.72939 15.4452 5.4327 16.0097 5.36151 16.1886C5.26007 16.4434 5.21369 17.9948 4.9016 19.0711C4.74351 19.019 5.06075 19.1331 4.9016 19.0711C4.96459 19.0918 5.02684 19.1124 5.08785 19.1331C4.52813 20.2161 2.79145 23.8702 3.61894 24.6185Z" fill="#64C180"/>
<path d="M14.7614 29.7082L14.0578 30.4625C14.2433 30.2148 14.4957 29.968 14.7614 29.7082C15.1486 29.3295 15.5641 28.9232 15.8417 28.4461C14.6488 28.0426 11.7377 27.7364 10.6141 28.2445C10.1869 28.4376 8.79203 29.4003 9.50278 29.5007C10.3907 29.6262 13.2072 28.2445 14.7614 29.7082Z" fill="#64C180"/>
<path d="M5.79837 15.2634C4.65954 15.2948 3.06778 16.0333 3.21426 17.5235C3.29353 18.3299 4.31327 18.8418 4.9016 19.0711C5.21369 17.9948 5.26007 16.4434 5.36151 16.1886C5.4327 16.0097 5.72939 15.4452 5.79837 15.2634Z" fill="#64C180"/>
<path d="M18.2532 13.2292C19.3792 14.1976 20.3819 15.262 21.375 16.3846C21.9913 17.0813 22.193 17.7089 22.4324 18.4537C22.5232 18.7364 22.7122 19.1242 22.8386 19.4509C23.4674 19.2178 23.7267 19.0445 23.6048 18.065C23.4021 16.4355 22.6917 14.7803 21.3419 14.1627C20.546 13.8335 20.4625 13.088 21.3569 12.7509C22.0584 12.2223 22.2828 12.0258 23.1588 11.8475C25.0001 11.4729 26.8464 11.2563 28.7086 11.4368C30.6085 11.6209 32.3832 12.5175 34.308 12.4824C34.5111 12.4787 35.4642 12.4875 35.4642 12.1089C35.4642 11.4974 34.7967 11.1434 34.3906 10.9327C33.0297 10.2265 31.6907 10.1145 30.2943 9.58835C29.4298 9.26262 30.8518 9.01537 31.0706 8.95354C32.5151 8.54531 34.7798 7.94829 36.2075 8.61746C36.702 8.84923 37.5276 9.33301 36.9507 8.31872C34.9861 4.86416 30.9837 5.54189 27.9984 6.76903C26.693 7.3056 28.0032 6.16341 28.5104 5.92883C29.2978 5.56472 30.0741 5.16201 30.8559 4.7899C31.3504 4.55451 31.4117 4.50829 30.8228 4.0804C29.2815 2.96035 26.9875 3.80851 25.4878 4.54718C23.3398 5.60514 20.8784 7.61727 20.1527 10.2232C20.0563 10.5692 19.7755 11.4055 19.6246 12.0005C19.7095 12.1075 19.7931 12.2181 19.8751 12.3322C19.4529 12.9487 19.4739 12.595 19.6246 12.0005C16.3709 7.90095 11.0555 8.99187 6.76547 9.96176C6.46676 10.0293 5.58449 10.0929 5.58449 10.5499C5.58449 10.8792 6.63623 11.0141 6.90969 11.076C7.9309 11.3068 8.92117 11.3943 9.95328 11.4723C10.0023 11.4594 10.0267 11.455 9.97808 11.4741C10.2203 11.422 10.4834 11.3563 10.7602 11.2871C12.1737 10.9341 13.945 10.4918 15.1315 11.3061C15.5403 11.5866 15.9841 11.8269 16.4295 12.068C17.0671 12.4132 17.7078 12.7601 18.2532 13.2292Z" fill="#64C180"/>
<path d="M23.5967 25.7158C23.5967 26.655 23.4173 26.9178 23.2091 27.8257C23.0847 28.3679 23.4408 27.7172 23.2263 28.2283C24.4844 27.9438 23.8096 28.1066 25.0785 28.2283C26.0323 28.1066 27.3011 28.0921 27.3011 27.3908C27.3011 25.8711 24.4002 26.0618 23.5967 25.7158Z" fill="#64C180"/>
<path d="M5.13852 19.0359C5.12296 19.0654 5.10603 19.0979 5.08785 19.1331M14.7614 29.7082L14.0578 30.4625C14.2433 30.2148 14.4957 29.968 14.7614 29.7082ZM14.7614 29.7082C13.2072 28.2445 10.3907 29.6262 9.50278 29.5007C8.79202 29.4003 10.1869 28.4376 10.6141 28.2445C11.7377 27.7364 14.6488 28.0426 15.8417 28.4461M14.7614 29.7082C15.1486 29.3295 15.5641 28.9232 15.8417 28.4461M14.7614 29.7082C14.6559 29.849 14.1385 30.2495 14.0226 30.4062C13.235 31.4709 12.2275 32.8328 11.3077 33.5526C10.5641 34.1345 9.13746 34.1594 8.26028 34.1594C8.20181 34.1594 8.14688 34.1589 8.0951 34.1584C7.56916 34.1533 7.36769 34.1514 7.07104 34.7382C6.93243 35.0124 7.56812 35.6005 7.96297 35.7091C12.0663 36.8374 16.9234 36.9343 20.673 34.5795C21.4951 34.0632 22.2416 33.4566 22.4682 32.4319C22.5873 31.8935 23.0092 28.7453 23.2263 28.2283M23.5967 25.7158C23.5967 26.655 23.4173 26.9178 23.2091 27.8257C23.0847 28.3679 23.4408 27.7172 23.2263 28.2283M23.5967 25.7158C24.4002 26.0618 27.3011 25.8711 27.3011 27.3908C27.3011 28.0921 26.0323 28.1066 25.0785 28.2283C23.8096 28.1066 24.4844 27.9438 23.2263 28.2283M23.5967 25.7158C23.5967 25.0063 23.4966 24.4435 23.4218 23.759C23.3479 23.0824 23.2745 22.4097 23.2745 21.7245C23.2745 21.154 23.021 20.0249 22.8386 19.4509M22.8386 19.4509C22.9112 19.6384 22.7734 19.2453 22.8386 19.4509ZM22.8386 19.4509C23.4674 19.2178 23.7267 19.0445 23.6048 18.065C23.4021 16.4355 22.6917 14.7803 21.3419 14.1627C20.546 13.8335 20.4625 13.088 21.3569 12.7509C22.0584 12.2223 22.2828 12.0258 23.1588 11.8475C25.0001 11.4729 26.8464 11.2563 28.7086 11.4368C30.6085 11.6209 32.3832 12.5174 34.308 12.4824C34.5111 12.4787 35.4642 12.4875 35.4642 12.1089C35.4642 11.4974 34.7967 11.1434 34.3906 10.9327C33.0297 10.2265 31.6907 10.1145 30.2943 9.58835C29.4298 9.26262 30.8518 9.01537 31.0706 8.95354C32.5151 8.54531 34.7798 7.94829 36.2075 8.61746C36.702 8.84923 37.5276 9.33301 36.9507 8.31872C34.9861 4.86416 30.9837 5.54189 27.9984 6.76903C26.693 7.3056 28.0032 6.16341 28.5104 5.92883C29.2978 5.56472 30.0741 5.16201 30.8559 4.7899C31.3504 4.55451 31.4117 4.50829 30.8228 4.0804C29.2815 2.96035 26.9875 3.80851 25.4878 4.54718C23.3398 5.60514 20.8784 7.61727 20.1527 10.2232C20.0563 10.5692 19.7755 11.4055 19.6246 12.0005M22.8386 19.4509C22.68 19.5097 22.6066 20.0441 22.3825 20.0441M22.8386 19.4509C22.7122 19.1242 22.5232 18.7364 22.4324 18.4537C22.193 17.7089 21.9913 17.0813 21.375 16.3846C20.3819 15.262 19.3792 14.1976 18.2532 13.2292C17.7078 12.7601 17.0671 12.4132 16.4295 12.068C15.9841 11.8269 15.5403 11.5866 15.1315 11.3061C13.945 10.4918 12.1737 10.9341 10.7602 11.2871C10.4834 11.3563 10.2203 11.422 9.97808 11.4741M9.97808 11.4741C9.23354 11.7678 7.78309 12.4675 7.21144 12.9118C6.35607 13.5765 6.18877 14.2347 5.79837 15.2634M9.97808 11.4741C9.48472 11.2882 9.87573 11.3878 9.97808 11.4741ZM9.97808 11.4741C10.0211 11.5104 9.71987 11.4865 9.7525 11.531M9.97808 11.4741C10.4453 11.5093 9.82224 11.6263 9.7525 11.531M9.97808 11.4741C9.90431 11.49 9.829 11.5091 9.7525 11.531M9.97808 11.4741C10.0267 11.455 10.0023 11.4594 9.95328 11.4723M9.97808 11.4741C9.96981 11.4735 9.96154 11.4729 9.95328 11.4723M4.9016 19.0711C5.21369 17.9948 5.26007 16.4434 5.36151 16.1886C5.4327 16.0097 5.72939 15.4452 5.79837 15.2634M4.9016 19.0711C4.70506 19.7489 4.76857 18.9959 4.9016 19.0711ZM4.9016 19.0711C4.31327 18.8418 3.29353 18.3299 3.21426 17.5235C3.06778 16.0333 4.65954 15.2948 5.79837 15.2634M4.9016 19.0711C5.06075 19.1331 4.74351 19.019 4.9016 19.0711ZM4.9016 19.0711C4.96459 19.0918 5.02684 19.1124 5.08785 19.1331M15.8417 28.4461C16.8717 26.6757 17.3287 24.4375 16.7667 22.6021C16.6206 22.1249 15.9 21.8478 15.5444 22.2286C14.1934 23.6754 12.8012 24.7601 11.0021 25.384C8.72649 26.1733 5.57466 26.3871 3.61894 24.6185C2.79145 23.8702 4.52813 20.2161 5.08785 19.1331M15.8417 28.4461C15.7289 28.3975 15.9586 28.4856 15.8417 28.4461ZM5.28718 19.2039C5.22278 19.1797 5.15609 19.1562 5.08785 19.1331M9.7525 11.531C9.65929 11.5578 9.85536 11.498 9.95328 11.4723M19.6246 12.0005C19.7095 12.1075 19.7931 12.218 19.8751 12.3322C19.4529 12.9487 19.4739 12.595 19.6246 12.0005ZM19.6246 12.0005C16.3709 7.90095 11.0555 8.99187 6.76547 9.96176C6.46676 10.0293 5.58449 10.0929 5.58449 10.5499C5.58449 10.8792 6.63623 11.0141 6.90969 11.076C7.9309 11.3068 8.92117 11.3943 9.95328 11.4723" stroke="#64C180" stroke-width="0.720301" stroke-linecap="round" stroke-linejoin="round"/>
</svg>
