<svg width="41" height="41" viewBox="0 0 41 41" fill="none" xmlns="http://www.w3.org/2000/svg">
<g clip-path="url(#clip0)">
<path d="M25.7617 26.694C13.2511 28.4028 3.35821 27.0389 2.19757 25.2849C1.2902 23.9369 13.0089 23.5919 18.2904 22.9726C17.8376 18.8792 19.2688 10.5111 25.7616 9.46013C32.2544 8.40917 36.7908 13.9424 37.2206 21.9139C36.7908 24.2826 38.2722 24.9851 25.7617 26.694Z" fill="#F8BC47"/>
<path d="M25.1216 10.9175C28.5897 12.4492 28.9243 16.7786 29.4145 19.3574C29.5781 20.2177 29.7572 21.1991 29.4816 22.0564C29.4192 22.2507 29.0171 23.5416 29.2732 22.9617" stroke="black" stroke-width="2" stroke-linecap="round" stroke-linejoin="round"/>
<path d="M18.3991 22.7265C19.9627 23.0959 21.3646 23.3736 22.9777 23.3989C23.6011 23.4087 25.136 23.6028 25.625 23.1981" stroke="black" stroke-width="2" stroke-linecap="round" stroke-linejoin="round"/>
</g>
<defs>
<clipPath id="clip0">
<path d="M0.17627 0.00927734H40.1763V40.0093H0.17627V0.00927734Z" fill="white"/>
</clipPath>
</defs>
</svg>
