<svg width="41" height="40" viewBox="0 0 41 40" fill="none" xmlns="http://www.w3.org/2000/svg">
<g clip-path="url(#clip0)">
<path d="M16.1418 26.956C16.8768 25.3722 17.7029 23.7561 18.2116 22.0966C18.4553 22.0582 18.8579 22.0089 18.9765 21.9866C19.4066 21.9056 19.9238 21.63 20.397 21.734C20.7279 21.8067 21.2499 21.9707 21.572 22.1004C22.4468 22.4527 23.1002 23.7802 23.4587 24.4141C24.0975 25.5435 24.8042 26.6583 25.3416 27.8138C25.8629 28.9346 26.2958 30.0738 26.7277 31.2103L26.757 31.2874C27.474 33.1738 28.3651 34.1094 29.6907 35.8468C29.8044 35.9958 30.404 36.7485 29.8293 36.482C28.5444 35.8861 27.2699 35.0093 26.1537 34.2189C25.6758 33.8804 25.2226 33.4958 24.7274 33.1775C24.3978 32.9655 24.364 32.9551 24.2907 33.251C24.1524 33.8087 24.1064 35.1428 23.9762 35.7028C23.8899 36.0738 23.8961 36.7677 23.6326 37.0682C23.6085 37.0957 23.4375 36.7863 23.4224 36.7632C23.2346 36.476 23.0539 36.1873 22.8766 35.8966C22.2488 34.8671 22.0138 33.7319 21.4669 31.958C21.2947 31.3994 21.0478 30.5326 20.7708 29.5792C20.2753 31.9416 19.351 34.9547 19.4439 37.2354C19.4694 37.862 19.3452 38.4515 19.1794 39.0435C19.1222 39.2478 19.0528 39.0353 18.9637 38.9663C18.5727 38.663 18.5741 37.9377 18.4454 37.5571C18.1347 36.6385 17.6982 35.7772 17.1953 34.8992C16.7951 34.2005 16.4525 33.497 16.286 32.7607C16.2308 32.5165 16.1459 32.6421 16.0271 32.7755C15.8329 32.9937 15.4691 33.1354 15.2206 33.3108C14.8844 33.5481 14.5823 33.8066 14.2946 34.0812C13.6076 34.7371 12.8254 35.3464 12.1787 36.0272C11.8813 36.3402 12.2731 35.6224 12.3176 35.5082C12.6257 34.7172 12.82 33.8999 13.1646 33.1212C14.224 30.7271 15.0384 29.3333 16.1418 26.956Z" fill="#ED4A5F"/>
<path d="M10.2672 9.01783C11.0475 9.21467 11.9434 8.79286 12.2903 8.11795C13.0573 6.88794 12.4056 6.96076 12.4056 5.56801C12.4056 4.3656 13.3911 3.50032 14.4629 3.50032C15.4161 3.50032 16.0248 3.9995 16.8962 4.45272C18.0237 5.03916 19.3286 5.47044 20.3069 4.45272C21.212 3.51127 21.8522 2.77979 23.1738 2.77979C24.1823 2.77979 24.6443 3.54244 25.1316 4.34766C25.714 5.30979 26.0311 6.01208 27.4055 6.01208C28.2928 6.01208 28.703 6.05167 29.5518 5.87508C29.9501 5.79221 31.2456 5.77143 31.6504 6.09889C32.2117 6.55301 32.9213 7.48255 32.9631 8.30775C33.0351 9.73125 32.7058 10.6278 32.0618 11.8718C31.5824 12.7981 32.558 13.5142 33.3515 13.5448C34.7812 13.5998 34.7811 14.6571 34.7811 15.821V15.84C34.7811 17.0575 33.6578 17.4586 32.8777 18.2701C32.17 19.0062 35.0245 20.6781 33.3249 22.0707C31.6253 23.4634 31.5358 21.8096 30.9097 23.6084C30.2835 25.4072 30.518 26.4918 28.9075 26.4918C27.7655 26.3908 28.0269 25.7721 27.277 25.8585C26.5271 25.9449 26.4924 26.4935 26.168 26.9164C25.8435 27.3394 25.7184 27.6085 25.1938 28.0597C24.2717 28.8529 22.5287 29.0212 21.6355 28.092C21.0707 27.5045 20.5176 26.6584 19.6465 26.6373C18.5313 26.6103 18.1518 27.0236 17.3002 27.6879C16.178 28.5634 14.1336 29.2551 13.0333 27.7714C12.3507 26.8509 12.5454 25.9227 12.5454 24.8351C12.5454 24.0434 12.0794 22.6261 11.2169 22.4267C10.405 22.239 9.43931 22.6845 8.68411 22.1761C6.65781 20.8123 8.38236 18.3668 9.11919 16.6805C9.4663 15.8862 8.66326 14.869 8.0548 14.4823C7.12118 13.8888 6.67188 13.5217 6.67188 12.381C6.67188 11.6342 7.02951 10.4566 7.58865 9.98068C7.94495 9.67744 8.14401 9.43612 8.59865 9.21291C9.0533 8.9897 9.48682 8.82098 10.2672 9.01783Z" fill="#F57283"/>
<circle cx="20.943" cy="15.8312" r="10.0924" fill="#ED4A5F"/>
<path d="M19.5417 15.9525C19.9017 15.8775 20.2467 15.8625 20.4867 15.8625C21.5817 15.8625 22.4217 16.4325 22.4217 17.3925C22.4217 18.3525 21.6267 18.8325 20.7717 18.8325C20.0067 18.8325 19.3467 18.4575 19.0017 17.7375L17.5017 18.4875C18.1017 19.7625 19.4667 20.4075 20.8167 20.4075C22.7067 20.4075 24.2967 19.2675 24.2967 17.3325C24.2967 16.2075 23.6067 15.2325 22.5867 14.8725C23.3217 14.4675 23.8167 13.6125 23.8167 12.7425C23.8167 11.1075 22.3467 10.0725 20.5617 10.0725C19.1967 10.0725 18.0267 10.8075 17.6217 12.0225L19.1667 12.6975C19.3467 12.0225 19.8867 11.6475 20.5467 11.6475C21.4167 11.6475 21.9717 12.1875 21.9717 12.8925C21.9717 13.5375 21.5067 14.0325 20.8167 14.2125C20.5017 14.2875 20.0667 14.3325 19.5417 14.3325V15.9525Z" fill="white"/>
</g>
<defs>
<clipPath id="clip0">
<path d="M0.911865 0H40.9119V40H0.911865V0Z" fill="white"/>
</clipPath>
</defs>
</svg>
