<svg width="41" height="41" viewBox="0 0 41 41" fill="none" xmlns="http://www.w3.org/2000/svg">
<path d="M19.1389 5.52194C15.5819 5.52194 12.4372 6.80416 10.1223 9.17698C7.81275 11.5444 6.39156 14.9316 6.14003 19.0455C5.88735 23.1782 7.02078 26.6621 9.35695 29.0511C11.6963 31.4433 15.1166 32.6096 19.1769 32.3501C23.0708 32.1012 25.8727 31.365 27.883 29.417C29.8658 27.4958 30.9047 24.5568 31.7386 20.3934C32.6343 15.9221 31.2802 12.1732 28.7728 9.55927C26.289 6.96982 22.7039 5.52194 19.1389 5.52194Z" fill="#DDDDDD" stroke="black" stroke-width="2"/>
<path d="M27.4383 8.59384C30.3431 11.4946 29.5061 19.0244 27.5302 23.4154C26.0696 26.6613 21.6287 30.9713 17.4792 32.2144" stroke="black" stroke-width="2" stroke-linecap="round"/>
<path d="M28.2687 23.0976L30.6011 23.8444M29.6389 18.3998L31.1092 18.6769M25.7157 27.1759L27.4382 28.4847M22.8737 29.3134L24.5336 30.9711" stroke="black" stroke-width="2" stroke-linecap="round"/>
</svg>
