<svg width="41" height="41" viewBox="0 0 41 41" fill="none" xmlns="http://www.w3.org/2000/svg">
<g clip-path="url(#clip0)">
<path d="M23.4768 5.39694C19.9198 5.39694 16.7751 6.67916 14.4602 9.05198C12.1506 11.4194 10.7295 14.8066 10.4779 18.9205C10.2252 23.0532 11.3587 26.5371 13.6948 28.9261C16.0342 31.3183 19.4545 32.4846 23.5148 32.2251C27.4087 31.9762 30.2105 31.24 32.2209 29.292C34.2036 27.3708 35.2426 24.4318 36.0765 20.2684C36.9722 15.7971 35.618 12.0482 33.1107 9.43427C30.6268 6.84482 27.0417 5.39694 23.4768 5.39694Z" fill="#DDDDDD" stroke="black" stroke-width="2"/>
<path d="M31.7759 8.46884C34.6807 11.3696 33.8438 18.8994 31.8679 23.2904C30.4073 26.5363 25.9663 30.8463 21.8168 32.0894" stroke="black" stroke-width="2" stroke-linecap="round"/>
<path d="M32.6066 22.9726L34.939 23.7194M33.9768 18.2748L35.4471 18.5519M30.0536 27.0509L31.7761 28.3597M27.2115 29.1884L28.8715 30.8461" stroke="black" stroke-width="2" stroke-linecap="round"/>
<path d="M16.0882 9.77194C12.6193 9.77194 9.55391 11.0425 7.29973 13.3892C5.0519 15.7294 3.67122 19.0745 3.42685 23.1338C3.18139 27.2112 4.28181 30.6515 6.55589 33.0134C8.83531 35.3808 12.1703 36.536 16.1279 36.2792C19.9166 36.0332 22.6504 35.305 24.6115 33.375C26.542 31.4752 27.5515 28.5719 28.3617 24.4638C29.2317 20.0522 27.9173 16.3508 25.4768 13.7667C23.0586 11.2062 19.5653 9.77194 16.0882 9.77194Z" fill="#FFCE6F" stroke="black" stroke-width="2"/>
<path d="M24.1541 12.8171C26.9772 15.6804 26.1638 23.1129 24.2435 27.4472C22.824 30.6511 18.5079 34.9054 14.4752 36.1325" stroke="black" stroke-width="2" stroke-linecap="round"/>
<path d="M24.961 27.1336L27.2279 27.8709M26.2928 22.4966L27.7217 22.7701M22.4799 31.1593L24.1539 32.4512M19.7178 33.2692L21.3311 34.9054" stroke="black" stroke-width="2" stroke-linecap="round"/>
</g>
<defs>
<clipPath id="clip0">
<path d="M0.17627 0.00927734H40.1763V40.0093H0.17627V0.00927734Z" fill="white"/>
</clipPath>
</defs>
</svg>
