<svg width="41" height="41" viewBox="0 0 41 41" fill="none" xmlns="http://www.w3.org/2000/svg">
<path d="M8.4684 29.7632C9.79413 29.5945 10.763 29.6236 11.6329 30.7473C11.7846 30.7628 11.9967 30.586 12.1141 30.6436C12.7772 30.9685 12.3183 31.5153 12.3044 32.0211C12.2879 32.6179 12.4505 32.9603 11.8288 33.2329C10.8277 33.6719 9.6093 33.2568 8.57408 33.2329C7.4187 33.2063 5.70916 33.1124 5.21365 31.8554C5.0021 31.3187 5.30144 30.6106 5.85826 30.4157C6.68463 30.1265 7.5955 29.8743 8.4684 29.7632Z" fill="#DDDDDD"/>
<path d="M32.145 11.305C31.4951 10.043 30.8421 8.89993 29.8942 7.83532C29.4231 7.30625 28.985 6.87163 28.2562 6.71154C27.0657 6.45 25.711 6.6875 24.4995 6.63904C22.7122 6.56754 20.7169 7.05484 19.4008 8.36354C18.7038 9.05662 18.9691 9.95354 18.6241 10.782C18.1596 11.8974 16.648 12.6366 15.7339 13.361C14.6897 14.1884 13.5305 14.8298 12.5743 15.7587C11.7393 16.5698 10.9173 17.3938 10.0804 18.203C9.37277 18.8872 8.77623 19.5055 8.26806 20.3522C7.95055 20.8812 7.51249 21.4449 7.51249 22.0819C7.51249 23.4746 8.72307 24.1934 10.1755 24.7385C12.5732 25.6386 15.1626 24.01 17.6413 24.6039C18.452 24.7981 19.1874 25.1632 20.0243 25.2771C21.0687 25.4193 21.9595 25.3312 22.9937 25.1114C23.6761 24.9663 24.0738 25.0914 24.7162 25.4377C25.7008 25.9684 26.505 26.3073 27.6063 26.5511C27.8994 26.6159 28.0824 26.5228 28.3619 26.4371C28.8956 26.2737 29.4619 26.2314 30.0104 26.1368C30.5442 26.0448 31.0193 25.8601 31.5216 25.6707C31.9832 25.4967 32.5017 25.4389 32.9376 25.2046C33.3017 25.0089 33.6728 24.6798 33.9891 24.4175C34.2728 24.1821 34.6731 24.0426 34.9982 23.8478C34.9195 24.3492 35.5052 23.5441 34.9982 23.8478C35.1736 22.7307 35.2841 21.5483 35.0722 20.4299C34.8843 19.4382 34.4864 18.4797 34.2004 17.5143C34.0922 17.1489 33.9922 16.666 34.0525 16.2817C34.1011 15.9719 34.1581 15.588 34.2585 15.2926C34.3675 14.9722 34.6419 14.6546 34.4276 14.3087C33.6952 13.1263 33.8053 11.305 32.145 11.305Z" fill="#DDDDDD"/>
<path d="M34.9982 23.8478C34.6731 24.0426 34.2728 24.1821 33.9891 24.4175C33.6728 24.6798 33.3017 25.0089 32.9376 25.2046C32.5017 25.4389 31.9832 25.4967 31.5216 25.6707C31.0193 25.8601 30.5442 26.0448 30.0104 26.1368C29.4619 26.2314 28.8956 26.2737 28.3619 26.4371C28.0824 26.5228 27.8994 26.6159 27.6063 26.5511C26.505 26.3073 25.7008 25.9684 24.7162 25.4377C24.0738 25.0914 23.6761 24.9663 22.9937 25.1114C21.9595 25.3312 21.0687 25.4193 20.0243 25.2771C19.1874 25.1632 18.452 24.7981 17.6413 24.6039C15.1626 24.01 12.5732 25.6386 10.1755 24.7385C8.72307 24.1934 7.51249 23.4746 7.51249 22.0819C7.51249 21.4449 7.95055 20.8812 8.26806 20.3522C8.77623 19.5055 9.37277 18.8872 10.0804 18.203C10.9173 17.3938 11.7393 16.5698 12.5743 15.7587C13.5305 14.8298 14.6897 14.1884 15.7339 13.361C16.648 12.6366 18.1596 11.8974 18.6241 10.782C18.9691 9.95354 18.7038 9.05662 19.4008 8.36354C20.7169 7.05484 22.7122 6.56754 24.4995 6.63904C25.711 6.6875 27.0657 6.45 28.2562 6.71154C28.985 6.87163 29.4231 7.30625 29.8942 7.83532C30.8421 8.89993 31.4951 10.043 32.145 11.305C33.8053 11.305 33.6952 13.1263 34.4276 14.3087C34.6419 14.6546 34.3675 14.9722 34.2585 15.2926C34.1581 15.588 34.1011 15.9719 34.0525 16.2817C33.9922 16.666 34.0922 17.1489 34.2004 17.5143C34.4864 18.4797 34.8843 19.4382 35.0722 20.4299C35.2841 21.5483 35.1736 22.7307 34.9982 23.8478ZM34.9982 23.8478C35.5052 23.5441 34.9195 24.3492 34.9982 23.8478ZM11.6329 30.7473C10.763 29.6236 9.79413 29.5945 8.4684 29.7632C7.5955 29.8743 6.68463 30.1265 5.85826 30.4157C5.30144 30.6106 5.0021 31.3187 5.21365 31.8554C5.70916 33.1124 7.4187 33.2063 8.57408 33.2329C9.6093 33.2568 10.8277 33.6719 11.8288 33.2329C12.4505 32.9603 12.2879 32.6179 12.3044 32.0211C12.3183 31.5153 12.7772 30.9685 12.1141 30.6436C11.9967 30.586 11.7846 30.7628 11.6329 30.7473Z" stroke="black" stroke-width="2" stroke-linecap="round" stroke-linejoin="round"/>
<path d="M13.6958 18.2775C14.6834 17.338 15.5828 16.2535 17.1537 16.554C18.2839 16.7701 19.2575 17.365 20.449 17.365C20.8594 17.365 21.1921 17.3026 21.5942 17.2419C22.0561 17.1723 22.2171 17.622 22.4735 17.8864C23.0481 18.4793 23.754 19.4426 24.6014 19.581" stroke="black" stroke-width="2" stroke-linecap="round" stroke-linejoin="round"/>
<path d="M26.5962 13.5851C27.4557 12.7651 28.7224 11.4988 30.0541 12.0209" stroke="black" stroke-width="2" stroke-linecap="round" stroke-linejoin="round"/>
</svg>
