<svg width="41" height="41" viewBox="0 0 41 41" fill="none" xmlns="http://www.w3.org/2000/svg">
<path d="M17.4368 35.6255C16.1535 35.0997 14.6184 28.6182 13.5163 27.5992C13.0215 27.3064 12.1687 26.6511 11.5794 26.6511C11.0285 26.6511 11.4614 25.8767 11.4614 25.394C11.4614 23.3346 8.23916 27.5767 7.93425 25.9527C7.69573 24.6823 9.78304 23.6318 9.78304 22.6006C9.78304 22.1321 4.45945 24.2622 3.92198 24.5405C2.78015 25.1318 3.43707 23.4691 3.67286 22.8024C4.13154 21.5055 5.3276 20.278 6.26903 19.4503C6.98726 18.8188 8.54283 18.6031 9.04877 17.9295C9.38774 17.4781 5.24372 17.7122 4.80049 17.7122C2.50405 17.7122 4.38099 16.543 5.37741 15.7568C6.02685 15.2444 6.53958 14.9188 7.3311 14.9188C8.16672 14.9188 7.86744 14.4813 7.58023 13.8014C7.27521 13.0794 7.3896 11.7816 7.46222 11.008C7.5385 10.1955 7.519 8.83031 7.80313 8.09049C8.11211 7.28594 8.53096 4.59509 9.40717 5.8914C10.1478 6.9872 11.3029 8.91122 12.0383 10.0303C12.3434 10.4947 12.362 11.3087 12.589 11.8461C12.6967 12.1011 13.327 11.3783 13.5855 11.2253C14.9607 10.4115 16.5954 10.0952 18.1223 9.8286C20.1888 9.46773 24.3646 9.82669 26.3047 10.8472C27.0585 11.2437 26.864 10.5478 27.0652 10.0713C27.4866 9.07391 27.6109 8.74288 28.3495 8.17135C29.37 7.38157 29.5949 6.0008 30.6967 5.42124C30.9768 5.27388 31.7297 4.30513 31.8811 3.99148C32.164 3.40547 32.4668 3.26043 32.4668 4.17973V8.61813C32.4668 10.2235 32.2766 12.0265 32.9388 13.3979C33.3147 14.1765 34.9613 13.3369 35.4127 13.8712C35.7839 14.3106 34.2073 15.3515 34.1285 15.7712C33.8074 16.1512 33.7409 16.5954 33.5944 16.8121C33.2502 17.3214 34.8445 18.5448 35.299 18.8296C35.5381 18.9794 37.0822 20 37.0822 20.2263C37.0822 20.7299 35.3555 20.5056 35.1154 20.5056C34.8544 20.5056 30.0117 21.3297 30.3951 21.8402C30.7217 22.2752 31.6053 22.3549 32.0472 22.523C32.8421 22.8255 33.7255 23.5071 34.5385 23.5783C35.7064 23.6807 34.2403 24.4164 33.7649 24.4164C32.7198 24.4164 31.814 24.7861 30.8147 25.1147C30.3291 25.2744 27.3268 25.4371 28.5725 26.0924C28.9654 26.2991 29.9268 26.7486 30.2115 27.0856C30.6952 27.6581 29.0191 27.4891 28.7954 27.4891C27.8454 27.4891 27.6084 27.3802 26.8361 28.1115C25.9848 28.9176 23.6293 33.3894 23.1011 34.5702C22.5735 35.7498 21.582 35.7796 20.6885 36.3083C19.725 36.8785 18.3877 36.0151 17.4368 35.6255Z" fill="#ED4A5F" stroke="#ED4A5F" stroke-linecap="round" stroke-linejoin="round"/>
<path d="M12.3917 20.41V20.451L12.4205 20.4802C13.4466 21.5207 14.4798 22.397 15.262 22.8172C15.4583 22.9227 15.6418 23.0011 15.8077 23.0457C15.9728 23.0901 16.1275 23.1029 16.2622 23.0691C16.4009 23.0344 16.5117 22.9517 16.5853 22.8205C16.6568 22.693 16.6901 22.5252 16.6901 22.3211C16.6901 21.5398 16.4245 20.9729 16.0195 20.5781C15.6169 20.1856 15.0841 19.9704 14.5587 19.8754C14.0333 19.7803 13.5072 19.8038 13.1094 19.8963C12.9111 19.9425 12.7391 20.007 12.614 20.0867C12.4935 20.1636 12.3917 20.2715 12.3917 20.41Z" fill="white" stroke="white" stroke-width="0.2"/>
<path d="M28.0417 20.3271V20.3681L28.0128 20.3973C26.9889 21.4355 26.0808 22.221 25.3575 22.5504C24.9955 22.7153 24.6619 22.7742 24.3779 22.6727C24.09 22.5698 23.8818 22.3127 23.7484 21.9124C23.6481 21.6115 23.6382 21.3419 23.7045 21.1036C23.7707 20.8655 23.9106 20.6666 24.0965 20.5032C24.4655 20.179 25.0231 19.9875 25.5904 19.8919C26.16 19.7958 26.7542 19.7939 27.2087 19.8604C27.4352 19.8935 27.6331 19.9445 27.7772 20.0129C27.8492 20.0471 27.913 20.088 27.9599 20.1377C28.0078 20.1883 28.0417 20.2521 28.0417 20.3271Z" fill="white" stroke="white" stroke-width="0.2"/>
</svg>
