<svg width="40" height="40" viewBox="0 0 40 40" fill="none" xmlns="http://www.w3.org/2000/svg">
<g clip-path="url(#clip0)">
<path d="M15.4154 26.9057C16.1505 25.3219 16.9766 23.7058 17.4853 22.0463C17.729 22.0079 18.1316 21.9586 18.2502 21.9363C18.6803 21.8553 19.1975 21.5797 19.6706 21.6837C20.0016 21.7564 20.5236 21.9204 20.8457 22.0501C21.7205 22.4025 22.3739 23.7299 22.7324 24.3638C23.3712 25.4932 24.0779 26.608 24.6153 27.7635C25.1365 28.8843 25.5695 30.0235 26.0014 31.16L26.0307 31.2371C26.7477 33.1235 27.6387 34.0591 28.9644 35.7965C29.0781 35.9455 29.6776 36.6982 29.103 36.4317C27.8181 35.8358 26.5436 34.959 25.4274 34.1686C24.9495 33.8301 24.4963 33.4455 24.0011 33.1272C23.6715 32.9153 23.6377 32.9048 23.5643 33.2007C23.4261 33.7584 23.3801 35.0925 23.2499 35.6525C23.1636 36.0235 23.1698 36.7174 22.9063 37.018C22.8822 37.0454 22.7112 36.736 22.696 36.7129C22.5083 36.4257 22.3276 36.137 22.1503 35.8463C21.5224 34.8168 21.2874 33.6816 20.7406 31.9077C20.5683 31.3491 20.3215 30.4823 20.0445 29.5289C19.549 31.8913 18.6247 34.9044 18.7176 37.1851C18.7431 37.8117 18.6189 38.4012 18.4531 38.9932C18.3959 39.1975 18.3265 38.985 18.2374 38.916C17.8463 38.6127 17.8478 37.8874 17.719 37.5068C17.4084 36.5882 16.9718 35.7269 16.4689 34.8489C16.0687 34.1502 15.7262 33.4467 15.5597 32.7104C15.5045 32.4662 15.4195 32.5918 15.3008 32.7252C15.1066 32.9434 14.7427 33.0851 14.4943 33.2605C14.1581 33.4978 13.856 33.7563 13.5682 34.031C12.8813 34.6868 12.0991 35.2961 11.4524 35.9769C11.155 36.2899 11.5468 35.5721 11.5913 35.4579C11.8994 34.6669 12.0937 33.8496 12.4383 33.0709C13.4977 30.6768 14.3121 29.283 15.4154 26.9057Z" fill="#466BFF"/>
<path d="M9.54072 8.96753C10.3211 9.16438 11.217 8.74256 11.5638 8.06766C12.3308 6.83765 11.6792 6.91047 11.6792 5.51772C11.6792 4.31531 12.6646 3.45003 13.7364 3.45003C14.6896 3.45003 15.2984 3.94921 16.1698 4.40243C17.2973 4.98886 18.6021 5.42015 19.5805 4.40243C20.4855 3.46097 21.1257 2.72949 22.4474 2.72949C23.4559 2.72949 23.9178 3.49215 24.4052 4.29736C24.9876 5.2595 25.3046 5.96179 26.6791 5.96179C27.5663 5.96179 27.9765 6.00138 28.8253 5.82479C29.2237 5.74192 30.5192 5.72114 30.9239 6.04859C31.4852 6.50272 32.1949 7.43225 32.2366 8.25746C32.3086 9.68096 31.9793 10.5775 31.3354 11.8215C30.8559 12.7478 31.8316 13.4639 32.6251 13.4945C34.0547 13.5496 34.0547 14.6068 34.0546 15.7707V15.7897C34.0546 17.0072 32.9313 17.4083 32.1512 18.2198C31.4435 18.9559 34.2981 20.6278 32.5985 22.0204C30.8989 23.4131 30.8094 21.7593 30.1832 23.5581C29.557 25.3569 29.7916 26.4415 28.1811 26.4415C27.0391 26.3405 27.3005 25.7218 26.5506 25.8082C25.8006 25.8946 25.766 26.4432 25.4415 26.8661C25.1171 27.2891 24.9919 27.5582 24.4674 28.0094C23.5452 28.8026 21.8023 28.9709 20.909 28.0417C20.3443 27.4542 19.7912 26.6081 18.9201 26.587C17.8048 26.56 17.4254 26.9733 16.5738 27.6377C15.4516 28.5132 13.4072 29.2048 12.3069 27.7211C11.6242 26.8006 11.819 25.8724 11.819 24.7848C11.819 23.9931 11.353 22.5758 10.4905 22.3764C9.67858 22.1887 8.71287 22.6342 7.95767 22.1259C5.93137 20.762 7.65592 18.3165 8.39275 16.6302C8.73986 15.8359 7.93682 14.8188 7.32836 14.432C6.39474 13.8385 5.94543 13.4714 5.94543 12.3307C5.94543 11.584 6.30307 10.4063 6.86221 9.93039C7.21851 9.62715 7.41757 9.38583 7.87221 9.16262C8.32685 8.93941 8.76038 8.77068 9.54072 8.96753Z" fill="#839CFF"/>
<circle cx="20.2167" cy="15.7809" r="10.0924" fill="#466BFF"/>
<path d="M21.1249 20.1499V10.1749H19.9249C19.2349 10.5649 18.4699 10.9699 17.8399 11.2849V12.9499C18.2449 12.7699 18.8449 12.5449 19.2949 12.3199V20.1499H21.1249Z" fill="white"/>
</g>
<defs>
<clipPath id="clip0">
<path d="M0 0H40V40H0V0Z" fill="white"/>
</clipPath>
</defs>
</svg>
