<svg width="41" height="40" viewBox="0 0 41 40" fill="none" xmlns="http://www.w3.org/2000/svg">
<g clip-path="url(#clip0)">
<path d="M15.7067 26.9555C16.4418 25.3717 17.2679 23.7556 17.7765 22.0961C18.0203 22.0577 18.4229 22.0085 18.5415 21.9861C18.9715 21.9051 19.4887 21.6295 19.9619 21.7335C20.2929 21.8062 20.8149 21.9702 21.1369 22.0999C22.0117 22.4523 22.6652 23.7797 23.0237 24.4136C23.6625 25.543 24.3692 26.6578 24.9066 27.8133C25.4278 28.9342 25.8607 30.0733 26.2927 31.2098L26.322 31.2869C27.039 33.1733 27.93 34.1089 29.2557 35.8463C29.3694 35.9953 29.9689 36.748 29.3943 36.4815C28.1094 35.8856 26.8348 35.0089 25.7187 34.2184C25.2407 33.8799 24.7875 33.4953 24.2924 33.177C23.9628 32.9651 23.929 32.9546 23.8556 33.2505C23.7173 33.8082 23.6714 35.1423 23.5411 35.7023C23.4549 36.0733 23.461 36.7672 23.1975 37.0678C23.1734 37.0952 23.0025 36.7858 22.9873 36.7627C22.7996 36.4755 22.6188 36.1868 22.4416 35.8961C21.8137 34.8666 21.5787 33.7314 21.0318 31.9576C20.8596 31.3989 20.6127 30.5322 20.3357 29.5787C19.8402 31.9411 18.9159 34.9542 19.0088 37.2349C19.0344 37.8615 18.9101 38.451 18.7444 39.043C18.6871 39.2473 18.6177 39.0348 18.5287 38.9658C18.1376 38.6625 18.139 37.9372 18.0103 37.5566C17.6996 36.638 17.2631 35.7767 16.7602 34.8987C16.36 34.2001 16.0174 33.4965 15.8509 32.7602C15.7957 32.516 15.7108 32.6416 15.592 32.775C15.3979 32.9932 15.034 33.1349 14.7855 33.3103C14.4494 33.5476 14.1472 33.8061 13.8595 34.0808C13.1725 34.7366 12.3903 35.3459 11.7437 36.0267C11.4463 36.3397 11.838 35.6219 11.8825 35.5077C12.1906 34.7167 12.3849 33.8994 12.7295 33.1207C13.789 30.7266 14.6033 29.3329 15.7067 26.9555Z" fill="#84BCAB"/>
<path d="M9.8321 9.01734C10.6124 9.21419 11.5084 8.79237 11.8552 8.11746C12.6222 6.88745 11.9705 6.96027 11.9705 5.56752C11.9705 4.36511 12.956 3.49983 14.0278 3.49983C14.981 3.49983 15.5898 3.99901 16.4612 4.45223C17.5887 5.03867 18.8935 5.46995 19.8719 4.45223C20.7769 3.51078 21.4171 2.7793 22.7387 2.7793C23.7473 2.7793 24.2092 3.54195 24.6966 4.34717C25.2789 5.3093 25.596 6.01159 26.9704 6.01159C27.8577 6.01159 28.2679 6.05119 29.1167 5.87459C29.5151 5.79172 30.8106 5.77094 31.2153 6.0984C31.7766 6.55252 32.4863 7.48206 32.528 8.30726C32.6 9.73076 32.2707 10.6273 31.6268 11.8713C31.1473 12.7976 32.123 13.5137 32.9165 13.5443C34.3461 13.5994 34.3461 14.6566 34.346 15.8205V15.8395C34.346 17.057 33.2227 17.4581 32.4426 18.2696C31.7349 19.0057 34.5895 20.6776 32.8899 22.0702C31.1902 23.4629 31.1008 21.8091 30.4746 23.6079C29.8484 25.4067 30.083 26.4913 28.4725 26.4913C27.3305 26.3903 27.5919 25.7716 26.842 25.858C26.092 25.9444 26.0574 26.493 25.7329 26.9159C25.4085 27.3389 25.2833 27.608 24.7587 28.0592C23.8366 28.8524 22.0937 29.0207 21.2004 28.0915C20.6356 27.5041 20.0825 26.6579 19.2115 26.6368C18.0962 26.6098 17.7168 27.0231 16.8652 27.6875C15.743 28.563 13.6985 29.2546 12.5983 27.7709C11.9156 26.8504 12.1104 25.9222 12.1104 24.8346C12.1104 24.043 11.6444 22.6256 10.7818 22.4262C9.96996 22.2385 9.00425 22.684 8.24906 22.1757C6.22275 20.8118 7.9473 18.3663 8.68413 16.68C9.03124 15.8857 8.2282 14.8686 7.61975 14.4818C6.68612 13.8883 6.23682 13.5212 6.23682 12.3805C6.23682 11.6338 6.59445 10.4561 7.15359 9.9802C7.50989 9.67695 7.70895 9.43563 8.16359 9.21242C8.61824 8.98922 9.05176 8.82049 9.8321 9.01734Z" fill="#A2EAD4"/>
<circle cx="20.5079" cy="15.8307" r="10.0924" fill="#84BCAB"/>
<path d="M22.2887 19.877V17.417H23.7287V15.857H22.2887V9.90195H20.4587C19.1087 11.762 17.4137 14.087 16.1537 15.722V17.417H20.4887V19.877H22.2887ZM18.1037 15.857C18.6737 15.077 19.7687 13.442 20.4887 12.347V15.857H18.1037Z" fill="white"/>
</g>
<defs>
<clipPath id="clip0">
<path d="M0.367676 0H40.3677V40H0.367676V0Z" fill="white"/>
</clipPath>
</defs>
</svg>
