<svg width="41" height="41" viewBox="0 0 41 41" fill="none" xmlns="http://www.w3.org/2000/svg">
<g clip-path="url(#clip0)">
<path d="M26.4731 26.694C13.9625 28.4028 4.06963 27.0389 2.90899 25.2849C2.00162 23.9369 13.7204 23.5919 19.0018 22.9726C18.549 18.8792 19.9802 10.5111 26.473 9.46013C32.9658 8.40917 37.5023 13.9424 37.9321 21.9139C37.5023 24.2826 38.9837 24.9851 26.4731 26.694Z" fill="#A059AE"/>
<path d="M25.833 10.9175C29.3012 12.4492 29.6358 16.7786 30.126 19.3574C30.2895 20.2177 30.4687 21.1991 30.193 22.0564C30.1306 22.2507 29.7285 23.5416 29.9846 22.9617" stroke="black" stroke-width="2" stroke-linecap="round" stroke-linejoin="round"/>
<path d="M19.1106 22.7265C20.6741 23.0959 22.076 23.3736 23.6891 23.3989C24.3125 23.4087 25.8474 23.6028 26.3364 23.1981" stroke="black" stroke-width="2" stroke-linecap="round" stroke-linejoin="round"/>
</g>
<defs>
<clipPath id="clip0">
<path d="M0.17627 0.00927734H40.1763V40.0093H0.17627V0.00927734Z" fill="white"/>
</clipPath>
</defs>
</svg>
